<?xml version="1.0" encoding="UTF-8"?>
<svg version="1.1" xmlns="http://www.w3.org/2000/svg" width="193" height="52">
<path d="M0 0 C2.49817841 3.07468112 2.90833497 6.1611144 2.625 10 C0.52246615 16.42185182 -3.72264269 20.90979689 -8.5 25.5 C-9.13292969 26.13164063 -9.76585938 26.76328125 -10.41796875 27.4140625 C-15.09324269 32 -15.09324269 32 -17.375 32 C-17.28935791 32.69971924 -17.20371582 33.39943848 -17.11547852 34.12036133 C-16.72108594 37.35086529 -16.32928042 40.58167824 -15.9375 43.8125 C-15.80279297 44.91271484 -15.66808594 46.01292969 -15.52929688 47.14648438 C-14.68956086 54.08966756 -13.97153793 61.03192932 -13.375 68 C-13.2934668 68.85190918 -13.21193359 69.70381836 -13.12792969 70.58154297 C-12.85060088 73.83055661 -12.7999667 76.0660533 -14.5390625 78.890625 C-16.10567567 80.60988254 -17.33592081 81.87209285 -19.375 83 C-21.04119366 83.03970464 -22.70889969 83.04344571 -24.375 83 C-25.64730998 79.83392468 -26.91757353 76.66703203 -28.1875 73.5 C-28.54392578 72.613125 -28.90035156 71.72625 -29.26757812 70.8125 C-30.31011216 68.21094717 -31.34464552 65.60639842 -32.375 63 C-32.83592041 61.84371094 -32.83592041 61.84371094 -33.30615234 60.6640625 C-34.48572389 57.63503927 -35.375 55.2806422 -35.375 52 C-36.77433447 53.05788467 -38.16928668 54.1215668 -39.5625 55.1875 C-40.33980469 55.77917969 -41.11710937 56.37085938 -41.91796875 56.98046875 C-42.72878906 57.64691406 -43.53960937 58.31335938 -44.375 59 C-45.30054688 59.73992187 -46.22609375 60.47984375 -47.1796875 61.2421875 C-50.05829313 64.8583718 -49.71784685 67.57257571 -49.3125 71.9375 C-48.96522253 79.13273125 -48.96522253 79.13273125 -50.515625 82.4140625 C-52.0625 84.0625 -52.0625 84.0625 -55.375 86 C-57.84765625 86.0390625 -57.84765625 86.0390625 -60.375 85 C-61.83484321 82.75979345 -62.97894214 80.70155955 -64.125 78.3125 C-67.492122 71.87618842 -70.80241417 68.33323996 -77.375 65 C-78.73136753 64.21211004 -80.08575099 63.42078772 -81.4375 62.625 C-82.406875 62.08875 -83.37625 61.5525 -84.375 61 C-84.75 58.8125 -84.75 58.8125 -84.375 56 C-82.30623811 53.17896106 -81.54440679 52.23525598 -78.375 51 C-75.99681987 51.07843232 -73.62069118 51.23325584 -71.25 51.4375 C-66.43654895 51.65153685 -63.47049946 51.48177274 -59.765625 48.41796875 C-56.24029125 45.04830043 -52.5682882 41.3865764 -50.375 37 C-51.08382324 36.87544434 -51.79264648 36.75088867 -52.52294922 36.62255859 C-57.68662435 35.49540814 -62.55798141 33.4731395 -67.5 31.625 C-68.59699219 31.22539063 -69.69398437 30.82578125 -70.82421875 30.4140625 C-71.87480469 30.0221875 -72.92539063 29.6303125 -74.0078125 29.2265625 C-74.96574707 28.87158691 -75.92368164 28.51661133 -76.91064453 28.15087891 C-79.32514334 27.02328357 -80.73443601 26.08217493 -82.375 24 C-82.375 21.08184829 -81.1477434 19.66669031 -79.5 17.25 C-73.19407991 12.70973753 -64.51226519 15.03501948 -57.14453125 15.9375 C-55.66734091 16.11087492 -54.19012702 16.28404925 -52.71289062 16.45703125 C-50.43812509 16.72354953 -48.16866462 17.00265027 -45.90063477 17.32177734 C-36.97938575 18.82176858 -36.97938575 18.82176858 -28.61694336 16.37182617 C-26.57715525 14.35321154 -24.96000882 12.38576255 -23.375 10 C-17.72207097 2.63406217 -9.8636676 -4.1531232 0 0 Z " fill="#FEFEFE" transform="translate(136.375,41)"/>
<path d="M0 0 C3.96 0 7.92 0 12 0 C16.10152401 9.84365763 19.52107211 19.92401576 23 30 C27.11360143 20.16282108 30.52158714 10.07449256 34 0 C35.81242052 -0.02687279 37.62495233 -0.04633715 39.4375 -0.0625 C40.44683594 -0.07410156 41.45617187 -0.08570313 42.49609375 -0.09765625 C45 0 45 0 46 1 C46.09268999 2.35094982 46.11747326 3.70667091 46.11352539 5.06079102 C46.11344986 5.92160782 46.11337433 6.78242462 46.11329651 7.66932678 C46.10813522 8.60473801 46.10297394 9.54014923 46.09765625 10.50390625 C46.0962413 11.45692123 46.09482635 12.40993622 46.09336853 13.39183044 C46.08775152 16.44875165 46.07519616 19.50560077 46.0625 22.5625 C46.05748719 24.62955624 46.05292391 26.69661362 46.04882812 28.76367188 C46.03777656 33.84247588 46.02050055 38.9212257 46 44 C43.03 44 40.06 44 37 44 C36.505 31.625 36.505 31.625 36 19 C33.41073762 26.47873145 33.41073762 26.47873145 30.82446289 33.95849609 C30.3409436 35.35189209 30.3409436 35.35189209 29.84765625 36.7734375 C29.51773682 37.72653809 29.18781738 38.67963867 28.84790039 39.66162109 C28 42 28 42 27 44 C24.36 44 21.72 44 19 44 C15.73578095 36.08563649 12.84865362 28.07118524 10 20 C9.67 27.92 9.34 35.84 9 44 C6.03 44 3.06 44 0 44 C0 29.48 0 14.96 0 0 Z " fill="#FEFEFE" transform="translate(153,60)"/>
<path d="M0 0 C3.63 0 7.26 0 11 0 C13.95280213 6.42169135 16.46424316 12.87690651 18.75 19.5625 C19.06582031 20.47580078 19.38164062 21.38910156 19.70703125 22.33007812 C20.47488372 24.55219664 21.23914024 26.77547959 22 29 C24.00804538 25.98793193 24.99859809 23.43267702 26.1640625 20.01953125 C26.76347656 18.27446289 26.76347656 18.27446289 27.375 16.49414062 C27.7875 15.27919922 28.2 14.06425781 28.625 12.8125 C29.04523438 11.58595703 29.46546875 10.35941406 29.8984375 9.09570312 C30.93614707 6.06511948 31.96857524 3.03272836 33 0 C36.96 0 40.92 0 45 0 C45 14.52 45 29.04 45 44 C42.03 44 39.06 44 36 44 C35.67 36.08 35.34 28.16 35 20 C34.43410156 21.64871094 33.86820312 23.29742187 33.28515625 24.99609375 C32.54442327 27.14328176 31.80352957 29.29041433 31.0625 31.4375 C30.50272461 33.07041992 30.50272461 33.07041992 29.93164062 34.73632812 C29.57392578 35.77080078 29.21621094 36.80527344 28.84765625 37.87109375 C28.51773682 38.82943115 28.18781738 39.78776855 27.84790039 40.77514648 C27 43 27 43 26 44 C23.32941149 44.14115161 20.67567762 44.04247107 18 44 C16.8734369 40.95891001 15.74903305 37.91702595 14.625 34.875 C14.30789063 34.0190625 13.99078125 33.163125 13.6640625 32.28125 C13.3546875 31.44335938 13.0453125 30.60546875 12.7265625 29.7421875 C12.44377441 28.9776123 12.16098633 28.21303711 11.86962891 27.42529297 C10.86824043 24.63253802 9.93820355 21.81461066 9 19 C8.67 27.25 8.34 35.5 8 44 C5.36 44 2.72 44 0 44 C0 29.48 0 14.96 0 0 Z " fill="#FDFDFD" transform="translate(326,60)"/>
<path d="M0 0 C3.3 0 6.6 0 10 0 C10.33 7.59 10.66 15.18 11 23 C12.134375 21.35 13.26875 19.7 14.4375 18 C18.21150652 13.20653912 18.21150652 13.20653912 21.53515625 12.3359375 C23.76757111 12.3713165 25.81615008 12.54503127 28 13 C26.59601721 17.10110762 24.62912962 19.98089159 21.875 23.3125 C21.15054687 24.19550781 20.42609375 25.07851562 19.6796875 25.98828125 C19.12539063 26.65214844 18.57109375 27.31601563 18 28 C19.07955259 29.73152958 20.16382512 31.46011684 21.25 33.1875 C21.85328125 34.15042969 22.4565625 35.11335938 23.078125 36.10546875 C24.95971895 39.04205091 24.95971895 39.04205091 27.234375 41.73828125 C29 44 29 44 29 46 C25.45392432 46.7193883 22.5189644 46.93207697 19 46 C15.70599311 42.70073111 13.33607579 39.01961644 11 35 C10.67 38.63 10.34 42.26 10 46 C6.7 46 3.4 46 0 46 C0 30.82 0 15.64 0 0 Z " fill="#FDFDFD" transform="translate(242,58)"/>
<path d="M0 0 C2.97 0 5.94 0 9 0 C11.64 6.93 14.28 13.86 17 21 C19.26183971 14.46410759 19.26183971 14.46410759 21.51733398 7.92602539 C21.79907471 7.11641357 22.08081543 6.30680176 22.37109375 5.47265625 C22.65911865 4.64000244 22.94714355 3.80734863 23.24389648 2.94946289 C24 1 24 1 25 0 C28.00003445 -0.14177857 30.99757235 -0.04228771 34 0 C31.71325104 8.29231592 28.70784404 16.24979428 25.5625 24.25 C25.07989474 25.50253352 24.59747188 26.75513734 24.11523438 28.0078125 C23.41043945 29.80605469 23.41043945 29.80605469 22.69140625 31.640625 C22.27060791 32.71860352 21.84980957 33.79658203 21.41625977 34.90722656 C19.00255527 40.17818133 16.5599285 44.8243758 11 47 C7.63686165 47.33471993 4.35369771 47.45705261 1 47 C0.34 46.34 -0.32 45.68 -1 45 C-0.34 42.69 0.32 40.38 1 38 C4.3 38 7.6 38 11 38 C10.59113343 29.84006722 7.99991618 23.14834979 4.9375 15.625 C4.00473346 13.30644524 3.0761362 10.98620743 2.15234375 8.6640625 C1.73976318 7.64779785 1.32718262 6.6315332 0.90209961 5.58447266 C0 3 0 3 0 0 Z " fill="#FDFDFD" transform="translate(377,71)"/>
<path d="M0 0 C3.24044458 2.56535196 4.69560167 4.086805 6 8 C6.08021999 9.40824893 6.10765977 10.81997231 6.09765625 12.23046875 C6.09443359 13.03291016 6.09121094 13.83535156 6.08789062 14.66210938 C6.07951172 15.49548828 6.07113281 16.32886719 6.0625 17.1875 C6.05798828 18.03248047 6.05347656 18.87746094 6.04882812 19.74804688 C6.03705403 21.83206155 6.0191189 23.91603977 6 26 C7.32 26 8.64 26 10 26 C10 28.31 10 30.62 10 33 C3.64772727 34.22159091 3.64772727 34.22159091 0.625 33.1875 C-1 32 -1 32 -2 30 C-2.66 30.66 -3.32 31.32 -4 32 C-7.83524097 34.55682731 -10.51508352 34.7535386 -15 34 C-18.84861677 32.32668836 -20.46020684 30.8564189 -22 27 C-22.26660219 23.84520747 -21.92714216 21.02717501 -21 18 C-16.46222787 13.46222787 -10.08705803 12.42970046 -4 11 C-4 10.01 -4 9.02 -4 8 C-9.15271161 7.69689932 -11.69549391 8.24989889 -16 11 C-16.99 10.67 -17.98 10.34 -19 10 C-20.1875 7.4375 -20.1875 7.4375 -21 5 C-14.87847936 -0.56501876 -7.95836161 -2.33981793 0 0 Z M-12 20 C-12.67958603 22.39719432 -12.67958603 22.39719432 -13 25 C-11.17796419 27.22966747 -11.17796419 27.22966747 -8.5625 27.3125 C-6.01262753 27.18385652 -6.01262753 27.18385652 -4.1875 25.875 C-2.50893894 23.22464043 -2.79549762 21.06753576 -3 18 C-6.15332957 18 -8.99457031 19.10950231 -12 20 Z " fill="#FDFDFD" transform="translate(228,71)"/>
<path d="M0 0 C2.72188767 2.22194912 4.43988215 3.8797643 6 7 C6.1377685 10.67015275 6.04271961 14.32611348 6 18 C-0.93 18 -7.86 18 -15 18 C-13.66436384 22.94463635 -13.66436384 22.94463635 -11 24 C-9.45976004 24.06950541 -7.91665012 24.08452357 -6.375 24.0625 C-5.55773437 24.05347656 -4.74046875 24.04445313 -3.8984375 24.03515625 C-3.27195312 24.02355469 -2.64546875 24.01195313 -2 24 C-1.67 23.01 -1.34 22.02 -1 21 C3.75 22.875 3.75 22.875 6 24 C4.73090537 27.91304179 3.53743024 29.85610288 0 32 C-5.43617053 33.81205684 -10.98215186 33.7099836 -16.375 31.8125 C-19.83736126 29.42182199 -22.12028805 26.7594239 -24 23 C-25.16452417 8.28117805 -25.16452417 8.28117805 -20 2 C-13.72481674 -2.82706405 -7.22342281 -2.44339097 0 0 Z M-13.9375 7.875 C-15.1490712 9.90217203 -15.1490712 9.90217203 -15 12 C-10.71 12 -6.42 12 -2 12 C-3.45288986 7.4158037 -3.45288986 7.4158037 -5 6 C-9.950298 5.38059334 -9.950298 5.38059334 -13.9375 7.875 Z " fill="#FDFDFD" transform="translate(298,72)"/>
<path d="M0 0 C4.72388621 4.1615188 6.19841891 8.81994495 6.68359375 14.94140625 C6.56430234 19.76873196 5.4129691 24.26632282 2.19140625 27.953125 C-2.52801245 32.04878013 -6.70795224 32.72673448 -12.734375 32.65625 C-18.27698538 31.93472676 -22.00195149 29.07171841 -25.375 24.75 C-27.21102015 18.43868074 -27.34327299 12.02366436 -25.125 5.8125 C-18.86544111 -3.12972698 -9.65647204 -4.82823602 0 0 Z M-15.125 7.25 C-17.79400755 10.88281584 -17.87467274 12.76478419 -17.74609375 17.12890625 C-17.33662381 19.53831358 -16.65305431 21.23395616 -15.375 23.3125 C-12.2917365 24.85413175 -9.76621901 24.60997535 -6.375 24.3125 C-3.38923294 21.35431508 -2.92035396 18.93970992 -2.875 14.8125 C-2.9808067 10.85003918 -3.01493379 9.74257908 -5.625 6.625 C-9.58121934 4.73680441 -11.52200181 4.711524 -15.125 7.25 Z " fill="#FDFDFD" transform="translate(490.375,72.6875)"/>
<path d="M0 0 C2.97 0 5.94 0 9 0 C9.02505615 0.72179443 9.0501123 1.44358887 9.07592773 2.18725586 C9.19151302 5.437535 9.31440774 8.68749688 9.4375 11.9375 C9.47681641 13.07380859 9.51613281 14.21011719 9.55664062 15.38085938 C9.61948242 17.00024414 9.61948242 17.00024414 9.68359375 18.65234375 C9.72025146 19.65257568 9.75690918 20.65280762 9.79467773 21.68334961 C9.74671841 23.96069188 9.74671841 23.96069188 11 25 C13.95817107 25.25005386 13.95817107 25.25005386 17 25 C19.56136221 22.43863779 19.29666857 21.33438669 19.4140625 17.7734375 C19.45273437 16.7421875 19.49140625 15.7109375 19.53125 14.6484375 C19.5621875 13.56820312 19.593125 12.48796875 19.625 11.375 C19.66367187 10.28703125 19.70234375 9.1990625 19.7421875 8.078125 C19.83666247 5.38558835 19.92222431 2.69306243 20 0 C22.97 0 25.94 0 29 0 C29 10.89 29 21.78 29 33 C26.36 33 23.72 33 21 33 C20.67 32.01 20.34 31.02 20 30 C19.34 30.66 18.68 31.32 18 32 C14.16475903 34.55682731 11.48491648 34.7535386 7 34 C4.16288854 32.76647328 2.57121806 31.87462322 0.87939453 29.28417969 C-0.26256802 26.31799377 -0.22527435 23.87908092 -0.1953125 20.703125 C-0.18886719 19.49785156 -0.18242187 18.29257813 -0.17578125 17.05078125 C-0.15064453 15.16939453 -0.15064453 15.16939453 -0.125 13.25 C-0.11597656 11.98027344 -0.10695313 10.71054688 -0.09765625 9.40234375 C-0.07409005 6.26803907 -0.04118832 3.13411459 0 0 Z " fill="#FEFEFE" transform="translate(503,71)"/>
<path d="M0 0 C11.55 0 23.1 0 35 0 C35 2.64 35 5.28 35 8 C31.10835652 9.29721449 28.10570774 9.13033993 24 9 C23.34 8.67 22.68 8.34 22 8 C22 19.88 22 31.76 22 44 C19.03 44 16.06 44 13 44 C13 32.12 13 20.24 13 8 C11.68 8.33 10.36 8.66 9 9 C6.640625 8.87890625 6.640625 8.87890625 4.25 8.5625 C3.45078125 8.46066406 2.6515625 8.35882813 1.828125 8.25390625 C1.22484375 8.17011719 0.6215625 8.08632812 0 8 C0 5.36 0 2.72 0 0 Z " fill="#FEFEFE" transform="translate(426,60)"/>
<path d="M0 0 C2.97 0 5.94 0 9 0 C9.33 0.66 9.66 1.32 10 2 C10.99 1.34 11.98 0.68 13 0 C15.04296875 -0.1953125 15.04296875 -0.1953125 17.1875 -0.125 C19.0746875 -0.063125 19.0746875 -0.063125 21 0 C20.67 2.97 20.34 5.94 20 9 C18.906875 8.9175 17.81375 8.835 16.6875 8.75 C13.03141325 8.58920775 13.03141325 8.58920775 11.30151367 10.71777344 C9.84167762 13.27762101 9.58206841 14.83946573 9.48828125 17.765625 C9.45283203 18.65507813 9.41738281 19.54453125 9.38085938 20.4609375 C9.34702148 21.84152344 9.34702148 21.84152344 9.3125 23.25 C9.27833984 24.18585938 9.24417969 25.12171875 9.20898438 26.0859375 C9.12668898 28.39020846 9.06166287 30.69508463 9 33 C6.03 33 3.06 33 0 33 C0 22.11 0 11.22 0 0 Z " fill="#FDFDFD" transform="translate(541,71)"/>
 
    <!-- <rect width="193" height="52" fill="white"/> -->
</svg>
